<?xml version="1.0" standalone="no"?>
  <svg version="1.1"
      baseProfile="full"
     width="889px"
      height="623px"
     
      xmlns="http://www.w3.org/2000/svg"
      >
      <g xmlns="http://www.w3.org/2000/svg" xmlns:xlink="http://www.w3.org/1999/xlink">
      <g transform="rotate(0 444.5 311.56656250000003)"><svg xmlns:dc="http://purl.org/dc/elements/1.1/" xmlns:cc="http://creativecommons.org/ns#" xmlns:rdf="http://www.w3.org/1999/02/22-rdf-syntax-ns#" xmlns:svg="http://www.w3.org/2000/svg" xmlns="http://www.w3.org/2000/svg" xmlns:sodipodi="http://sodipodi.sourceforge.net/DTD/sodipodi-0.dtd" xmlns:inkscape="http://www.inkscape.org/namespaces/inkscape" version="1.1" id="l26" x="319.5" y="185.09" viewBox="131.25 131.3000030517578 737.5 737.4000244140625" width="250" height="252.953125" style="enable-background:new 0 0 1000 1000;" xml:space="preserve" class="injected-svg" data-src="/static/media/26.svg" xmlns:xlink="http://www.w3.org/1999/xlink" fill="rgb(255, 255, 255)" opacity="1" preserveAspectRatio="none"><style type="text/css" id="style3">
	#l26 .noFillSVG{fill:none;}
</style><switch id="switch5" transform="translate(-84.35,0)"><g id="g7"><g id="g9"><circle class="noFillSVG" cx="584.40002" cy="500" r="334.79999" id="circle11" style="fill:none"></circle><path class="noFillSVG" d="m 584.4,142.8 c -197,0 -357.2,160.2 -357.2,357.2 0,197 160.2,357.2 357.2,357.2 197,0 357.2,-160.2 357.2,-357.2 0,-197 -160.3,-357.2 -357.2,-357.2 z m 0,696.6 C 397.2,839.4 245,687.1 245,500 245,312.9 397.3,160.6 584.4,160.6 c 187.1,0 339.4,152.2 339.4,339.4 0,187.2 -152.3,339.4 -339.4,339.4 z" id="path13-12085" inkscape:connector-curvature="0" style="fill:none"></path><path d="M 584.4,160.6 C 397.2,160.6 245,312.9 245,500 245,687.1 397.3,839.4 584.4,839.4 771.5,839.4 923.8,687.2 923.8,500 923.8,312.8 771.5,160.6 584.4,160.6 Z m 0,674.2 C 399.8,834.8 249.6,684.6 249.6,500 249.6,315.4 399.8,165.2 584.4,165.2 769,165.2 919.2,315.4 919.2,500 919.2,684.6 769,834.8 584.4,834.8 Z" id="path15-12086" inkscape:connector-curvature="0"></path><path d="M 584.4,131.3 C 381,131.3 215.6,296.7 215.6,500 215.6,703.3 381,868.7 584.4,868.7 787.8,868.7 953.1,703.3 953.1,500 953.1,296.7 787.7,131.3 584.4,131.3 Z m 0,725.9 C 387.4,857.2 227.2,697 227.2,500 c 0,-197 160.2,-357.2 357.2,-357.2 197,0 357.2,160.2 357.2,357.2 0,197 -160.3,357.2 -357.2,357.2 z" id="path17-12087" inkscape:connector-curvature="0"></path></g></g></switch></svg></g><g transform="rotate(0 444.5 311.5703125)"><svg xmlns:dc="http://purl.org/dc/elements/1.1/" xmlns:cc="http://creativecommons.org/ns#" xmlns:rdf="http://www.w3.org/1999/02/22-rdf-syntax-ns#" xmlns:svg="http://www.w3.org/2000/svg" xmlns="http://www.w3.org/2000/svg" xmlns:sodipodi="http://sodipodi.sourceforge.net/DTD/sodipodi-0.dtd" xmlns:inkscape="http://www.inkscape.org/namespaces/inkscape" version="1.1" id="Layer_1" x="319.5" y="180" viewBox="129 113.94921875 742.0000610351562 772.1016235351562" width="250" height="263.140625" style="enable-background:new 0 0 1000 1000;" xml:space="preserve" class="injected-svg" data-src="/static/media/145.svg" xmlns:xlink="http://www.w3.org/1999/xlink" fill="rgb(255, 255, 255)" opacity="1" preserveAspectRatio="none"><style type="text/css" id="style3">
	.st0{opacity:0.8;}
	.st1{fill:#B9921D;}
</style><switch id="switch5" transform="translate(-22.7,21.448263)"><g id="g7"><g id="g9"><g class="st0" id="g11" style="opacity:0.8"><path class="st1" d="m 868.5,435.5 c -2.5,-29.4 -8.8,-57.1 -18.9,-82.8 -4.8,-12.9 -10.9,-25.2 -17.4,-37.2 -3.5,-5.8 -6.7,-11.9 -10.6,-17.5 l -5.7,-8.5 -6.1,-8.2 c -25.3,-34.1 -54.3,-63 -88.3,-86.6 -33.9,-23.5 -73.1,-41.7 -118,-50.4 -22.2,-4.4 -44.2,-6.3 -66,-5.9 -21.8,0.3 -43.4,2.8 -65.1,7.6 -44,8 -89,26.1 -129,54.9 -39.8,28.8 -74.9,67.8 -98.6,114 -1.3,2.4 -3.5,6 -5.6,10.1 -2,4.1 -4.2,8.7 -6,13 -3.2,8.7 -5,15.9 -1.8,15.5 -19.1,45.9 -27.6,96 -24.8,145.3 2.7,49.3 17.1,97.8 42.5,139.7 10.3,17.7 21.3,35.6 34,52.5 12.7,16.9 27,32.7 43.2,45.7 13.3,10.3 26.9,20.2 41,29.2 14.2,8.8 28.8,17.1 43.9,24.2 15.2,6.9 30.7,13.1 46.8,17.7 16.1,4.5 32.4,8.2 49,9.7 4.6,0.3 12,-0.3 19.1,-0.5 7.1,-0.3 14,-1 17.9,-0.6 45.5,3.3 90,-6.1 129.3,-23.6 39.5,-17.6 73.9,-43.1 103.6,-72.9 23.4,-23.4 38.7,-44 55.7,-70.3 -0.4,-3.6 3.6,-9.9 7.3,-18 2.8,-5.2 9,-16.2 15.9,-30.6 6.7,-14.4 13.7,-32.3 19.1,-50.4 11.3,-36.2 13.6,-73.2 15.4,-79.4 0.2,-0.8 0.3,2.8 0.3,9.7 0.2,6.9 -0.3,17 -1.4,29.3 -2.4,24.5 -8.7,57.7 -21.1,89 -6,15.7 -13.1,31 -20.9,44.7 -3.7,7 -7.9,13.3 -11.6,19.5 -4,6 -7.8,11.7 -11.4,16.8 -14.7,20.3 -26.2,32.2 -24.8,31.8 2.9,-1.4 34.4,-34.6 55.8,-75.8 10.9,-20.4 19.6,-42.2 25,-60 5.4,-17.8 8.2,-31.3 9.2,-35.1 -3.2,20.1 -8.1,39 -14,56.7 -1.6,4.4 -2.9,8.8 -4.6,13 -1.7,4.2 -3.4,8.4 -5,12.5 -3.7,8.1 -7.1,16.1 -11.2,23.5 -15.4,30.3 -33.9,54.9 -52.1,75.4 -36.8,40.8 -73.1,63.6 -100.1,78.2 -6.9,3.5 -13.1,6.9 -18.9,9.4 -5.8,2.6 -10.9,5.1 -15.7,6.9 -4.7,1.9 -8.8,3.6 -12.4,4.9 -3.6,1.3 -6.6,2.3 -9.1,3.2 -9.9,3.6 -11.3,4 -5.8,2.8 2.7,-0.7 7.1,-2 12.9,-3.8 5.8,-1.7 12.8,-4.5 20.9,-7.5 16.1,-6.5 36.2,-16.1 57,-29.3 20.8,-13.2 42.3,-29.8 61.5,-49.2 19.2,-19.3 36.3,-41.1 49.7,-62.7 18.3,-25.9 38.1,-67.6 51.2,-127.1 -2.6,17.9 -8,45.2 -16.2,69.6 -8,24.4 -18.4,45.8 -23.2,53.3 -10.5,17.8 -19,30.1 -26.2,39.7 -7.1,9.8 -13,16.9 -19.2,24.2 -3.2,3.6 -6.6,7.2 -10.3,11.1 -3.8,3.8 -8.2,7.8 -13.2,12.4 -10.4,8.7 -23.8,19.7 -44.5,32.2 -17,10.1 -37.5,21.1 -60.6,30.6 -23.1,9.5 -48.6,17.4 -74.6,22.5 -25.9,5.1 -52.1,7.3 -75.9,7.1 -23.9,-0.2 -45.4,-2.8 -62.4,-5.9 18,1.7 48,2.8 79.4,0 31.4,-2.7 63.8,-9.4 88.7,-15 -27.3,5.3 -48.8,7.8 -67.5,9.7 -4.7,0.4 -9.2,0.8 -13.6,1.2 -2.2,0.2 -4.4,0.4 -6.5,0.6 -2.1,0.1 -4.2,0.2 -6.3,0.4 -4.2,0.3 -8.3,0.6 -12.4,0.8 -4.1,0.1 -8.1,0.2 -12.2,0.4 -8.2,0.4 -16.3,0 -25,-0.2 -4.3,-0.2 -8.7,-0.7 -13.3,-1.1 -2.3,-0.2 -4.6,-0.5 -7,-0.7 -2.4,-0.4 -4.8,-0.7 -7.2,-1.1 -19.6,-3.1 -42.5,-8.7 -69.6,-21 -10.2,-4.4 -22,-9.5 -34.5,-15.7 -5.6,-3.5 -11.1,-7 -16.6,-11 -2.8,-1.9 -5.6,-3.9 -8.5,-6 -2.8,-2.2 -5.8,-4.5 -8.9,-6.9 C 286.9,750.4 254.5,717 228.7,679 203.1,641 184,598.3 174.8,550.7 c 1,4 1.1,7.5 1.2,11 0,3.5 0.1,7.1 1.1,11.2 4.2,20.6 10.8,40 19,58.2 8.2,18.2 17.8,35.5 29.1,51.8 11.2,16.3 23.8,31.9 37.8,46.9 14.1,14.9 29.6,29.3 46.8,43.4 6.4,5.7 15.3,10.9 24.2,16 4.6,2.4 9.2,4.8 13.6,7.1 4.4,2.4 8.8,4.4 12.7,6.7 2,1.1 3.9,2.2 5.9,3.4 2,1 4,2.1 5.9,3.1 3.9,2 7.7,4.2 11.6,6.2 7.8,3.8 15.4,7.8 23.1,11.1 15.4,7.2 31,13 47.5,18 -33.5,-6.6 -69.1,-19.6 -102.1,-38.7 -33.2,-18.9 -63.6,-43.7 -89.1,-70.6 -5.5,-5.4 -11.5,-11.5 -17.5,-17 -5.7,-5.8 -11.5,-11.1 -15.5,-15.6 10.2,14 21.1,27.6 33.2,40.1 5.9,6.4 12.3,12.3 18.6,18.4 3.2,3 6.6,5.8 9.9,8.6 3.3,2.9 6.6,5.7 10.1,8.4 24.1,18.8 52.6,35.9 83.5,48.4 15.3,6.6 31.5,11.6 47.5,16.1 8.2,1.9 16.2,4.2 24.4,5.5 4.1,0.8 8.1,1.5 12.2,2.3 4.1,0.6 8.1,1.2 12.2,1.7 32.3,4.5 63.9,4.6 92.4,2.5 28.6,-2.1 54.2,-6.5 75.6,-10.4 2.4,-0.9 4.8,-1.8 9.7,-3.6 1.3,-0.1 3.1,-0.3 5,-0.9 16,-5.2 34.9,-12.3 52.2,-18.6 -14.2,6.4 -28.6,12.5 -43.5,17.2 -56.2,24.2 -124.3,32.1 -191,21.2 -66.9,-10.6 -131.4,-40.4 -184.4,-81.7 -11.9,-9 -26.4,-22.8 -39,-38 -12.8,-15.1 -24.6,-30.9 -33.4,-42.9 -13.1,-17.5 -24.8,-36.4 -34.6,-56.4 -9.9,-20 -17.6,-41.2 -23.5,-62.8 -5.8,-21.7 -9.7,-43.9 -11.4,-66.1 -1.6,-22.2 -1.1,-44.4 1.1,-66.1 3.9,-39.2 13.7,-77.6 29,-113.5 7.5,-18 16.7,-35.2 26.8,-51.6 5,-8.3 10.6,-16.2 16.1,-24.1 5.9,-7.7 11.6,-15.4 18,-22.6 C 296.6,175.4 363.7,133.3 435.9,114.2 508,95 584.6,98.7 652.5,123 c 68,24.2 126.8,69 167.3,125.2 4,5.1 8.2,9.9 11.9,15.1 -1.1,-2.7 -2.4,-5.1 -3.6,-7.6 3.4,5 6.3,10.4 9.4,15.6 10.1,14.7 19,29.9 26.1,45.9 7,16 12.6,32.5 16.3,49.3 1.1,7 -0.6,1 -3.7,-7.7 -0.8,-2.2 -1.6,-4.6 -2.4,-7 -1,-2.3 -2,-4.7 -2.9,-7 -2,-4.5 -3.7,-8.6 -5.4,-10.8 1.5,3.6 2.5,7.3 3.5,10 0.9,2.7 1.5,4.6 1.5,4.6 0,0 -1.7,-0.9 -3.4,-1.8 2.7,5.3 2.5,9.1 2.9,13.3 -6.1,-17.6 -13.6,-34.8 -22.5,-51.3 -9,-16.4 -19.4,-32.1 -30.9,-46.9 -23,-29.7 -51.2,-55.4 -82.7,-76.3 2.8,3.6 8.6,8.8 14.9,13.6 3.1,2.5 6.2,5.1 9,7.4 2.9,2.3 5.5,4.4 7.3,6.3 19.4,15.4 37.1,33.2 50.1,51.8 9.7,12.4 18.5,25.7 25.8,39.8 3.9,6.9 7,14.3 10.3,21.5 2.9,7.4 6,14.7 8.3,22.2 2.7,7.4 4.6,15.1 6.7,22.6 1,3.8 1.7,7.6 2.6,11.4 l 1.3,5.7 1,5.7 c 3,15.1 4.4,30.3 5.7,45.1 -0.1,5.5 -0.2,11 -0.4,16.5 -0.5,5.4 -1,10.8 -1.4,16.1 -0.5,3.7 -1.1,4.5 -1.7,3.3 -0.3,-0.6 -0.6,-1.7 -0.9,-3.2 -0.3,-1.4 -0.7,-3.1 -1,-5 -0.7,-3.9 -1,-8.9 -1.7,-14.3 -0.7,-5.5 -0.9,-11.2 -1.3,-16.6 z M 187.1,366.9 c 8,-21.6 18.1,-41.5 30.2,-61 1.9,-3.5 3.9,-7 5.8,-10.6 2.1,-3.4 4.2,-6.8 6.4,-10.2 2.6,-4.3 5.5,-8.5 8.3,-13 1.4,-2.2 2.8,-4.5 4.2,-6.8 1.5,-2.3 3,-4.5 4.5,-6.9 26.5,-33.8 58.6,-62.6 94.5,-84.8 -18.7,10 -37.1,22.1 -54.9,37.3 -17.8,15.2 -35,33.5 -50.6,56 9.9,-14.6 20.5,-28.4 32.2,-40.9 l 4.3,-4.7 4.5,-4.5 c 3,-3 6,-6 9.1,-8.8 6.3,-5.5 12.4,-11.2 19,-16.2 25.8,-20.8 54,-36.7 83.1,-48.8 29.2,-11.8 59.4,-19.6 90,-23.3 30.5,-3.5 61.3,-3.6 91.9,0.4 18.6,1.6 37,5 55.3,9.5 18.3,4.5 36.3,10.5 53.9,18.1 24.9,10.2 48.3,22.8 69.9,37.4 -32.6,-25.1 -69.6,-44.9 -109.4,-57.4 -39.7,-12.5 -81.9,-18.6 -124.2,-16.8 -42.3,1.7 -84.7,10.5 -124.5,27.1 -39.8,16.5 -77.1,40.1 -109.4,69.8 -32.4,29.7 -59.5,65.6 -79.8,105.5 -10.1,19.9 -18.5,40.9 -25,62.6 -6.4,21.7 -10.8,44 -13.2,66.7 -10.4,90.5 14.5,186.6 70.1,262.6 -67.9,-101 -85.2,-227.5 -46.2,-338.3 z m -6.1,42 c -8.3,45.5 -7.7,92 1.4,136.4 5.9,30.2 15.7,60.4 29.1,88.6 13.7,28 30.6,54.2 49.8,76.5 19.2,22.4 40.4,41.2 61.3,55.9 21,14.7 41.7,25.4 60.1,32.3 -24.1,-11.4 -47.3,-25.5 -68.9,-42.3 -21.5,-16.8 -41.3,-36.3 -58.9,-58 -35.4,-43.2 -60.7,-96.2 -72.6,-153 1.5,6.7 2.8,12.8 3.9,18.1 1.4,5.3 2.7,9.8 3.7,13.7 2.1,7.8 4.1,12.8 4.9,15.6 1.8,5.4 0.6,1.4 -3.2,-10.4 -3.3,-11.9 -8.9,-31.6 -12.5,-58 -3.5,-26.3 -5.2,-59.2 -0.7,-96 0.1,-1.7 0.3,-4.4 0.7,-7.7 0.5,-3.2 1,-7.3 1.9,-11.7 z" id="path13-12081" inkscape:connector-curvature="0" style="fill:#b9921d"></path><path class="st1" d="m 696.1,138 c 43.9,24.1 83,57.1 112.4,95.7 -9.7,-16 -19.2,-30 -34.6,-46.4 -2.7,-2.6 -5.5,-5.3 -8.2,-8 -2.9,-2.5 -5.9,-5 -8.8,-7.6 -5.9,-5.2 -12.4,-9.7 -18.8,-14.5 -13.2,-9 -27.2,-17.6 -42.1,-24.8 -3.6,-1.9 -7.4,-3.6 -11.2,-5.3 -3.8,-1.7 -7.5,-3.4 -11.4,-5 -7.7,-3 -15.4,-6.2 -23.4,-8.6 -15.7,-5.5 -31.8,-9.4 -47.7,-13 -45.9,-9.9 -94.6,-10.7 -142.7,-1.9 -48,8.8 -95.1,27.7 -137.2,55.6 -42.1,27.8 -79.1,64.6 -107.6,107.8 -28.5,43.2 -48.5,92.8 -57.5,144.8 -1.3,5.1 -2.3,13.4 -3.6,22.5 -0.5,4.6 -0.8,9.4 -1.1,14.1 -0.1,2.4 -0.2,4.7 -0.4,7 0,2.3 0.1,4.6 0.1,6.7 C 156.5,391 177.7,327 212,273 c 17,-27.1 37.7,-51.6 60.4,-73.3 22.8,-21.7 48.3,-40.2 75.3,-55.5 27.1,-15.2 55.9,-26.8 85.4,-34.9 29.6,-8 60,-12 90.2,-12.5 30.2,-0.6 60.4,2.9 89.5,9.8 29.1,6.9 57.2,17.4 83.3,31.4 z" id="path15-12082" inkscape:connector-curvature="0" style="fill:#b9921d"></path><path class="st1" d="m 274.3,767 c 14.9,12.9 30.4,24.9 46.7,35.6 16.3,10.5 32.8,20.2 49.6,28.6 -14.7,-8.7 -31.6,-19.5 -48.2,-31.4 -16.6,-11.9 -32.5,-25.4 -46,-38.1 -38.4,-35.2 -69.9,-78.3 -91.2,-125.3 19.3,47.9 49,93 89.1,130.6 z" id="path17-12083" inkscape:connector-curvature="0" style="fill:#b9921d"></path><path class="st1" d="m 152.5,457.4 c -0.2,5.3 -0.7,10.6 -0.7,15.9 0,5.3 0,10.7 -0.1,16.1 0.8,49.3 12,100.1 33.5,147 -20.4,-50.6 -29.4,-104.4 -28.1,-158 -1.3,0.1 -2.4,-2.1 -3.3,-5.9 -0.8,-3.8 -1.1,-9.1 -1.3,-15.1 z" id="path19-12084" inkscape:connector-curvature="0" style="fill:#b9921d"></path></g></g></g></switch></svg></g><g transform="rotate(0 446.4958006286621 311.5720015716553)"><svg id="1595953950193" opacity="1" fill="rgb(255, 255, 255)" viewBox="1.440000057220459 -50.400001525878906 89.86000061035156 50.400001525878906" width="185.11160125732422" preserveAspectRatio="none" height="103.82400314331055" x="353.94" y="259.66"><path id="textPath" d="M1.44 0L10.08 0L10.08-29.59L23.04-16.63L35.93-29.59L35.93 0L39.53 0L39.53-32.98L40.97-34.63L40.97 0L44.57 0L44.57-43.27L26.57-25.27L25.56-26.35L44.57-45.36L44.57-50.40L23.04-28.87L1.44-50.40L1.44-44.71L23.69-22.46L22.68-21.46L1.44-42.70ZM5.04-3.60L5.04-34.63L6.48-33.19L6.48-3.60ZM48.17 0L56.81 0L56.81-29.59L69.77-16.63L82.66-29.59L82.66 0L86.26 0L86.26-32.98L87.70-34.63L87.70 0L91.30 0L91.30-43.27L73.30-25.27L72.29-26.35L91.30-45.36L91.30-50.40L69.77-28.87L48.17-50.40L48.17-44.71L70.42-22.46L69.41-21.46L48.17-42.70ZM51.77-3.60L51.77-34.63L53.21-33.19L53.21-3.60Z" style="pointer-events: bounding-box; cursor: move;"></path></svg></g>
      </g>
  </svg>